<?xml version="1.0" standalone="no"?>
<!DOCTYPE svg PUBLIC "-//W3C//DTD SVG 20010904//EN"
 "http://www.w3.org/TR/2001/REC-SVG-20010904/DTD/svg10.dtd">
<svg version="1.0" xmlns="http://www.w3.org/2000/svg"
 width="1024.000000pt" height="1024.000000pt" viewBox="0 0 1024.000000 1024.000000"
 preserveAspectRatio="xMidYMid meet">
<metadata>
Created by potrace 1.11, written by Peter Selinger 2001-2013
</metadata>
<g transform="translate(0.000000,1024.000000) scale(0.100000,-0.100000)"
fill="#000000" stroke="none">
<path d="M4905 9813 c-144 -8 -335 -27 -455 -44 -1623 -235 -3009 -1301 -3653
-2811 -412 -965 -486 -2063 -207 -3079 282 -1028 909 -1933 1776 -2565 601
-437 1347 -739 2084 -843 256 -37 379 -45 670 -45 375 0 634 27 976 100 899
191 1699 627 2349 1279 737 738 1204 1693 1334 2725 52 409 50 833 -5 1225
-167 1197 -775 2272 -1709 3024 -497 400 -1089 703 -1704 871 -457 126 -1020
189 -1456 163z m620 -2369 c64 -42 61 -21 74 -574 21 -906 31 -1450 31 -1702
0 -170 3 -249 11 -254 6 -4 29 13 52 37 22 24 110 116 195 204 85 88 201 207
257 265 56 58 254 265 440 460 186 195 377 396 424 445 48 50 131 137 186 195
54 58 135 143 180 190 45 47 153 162 240 255 158 168 256 273 326 347 32 33
42 38 83 38 40 0 52 -5 87 -37 33 -32 41 -46 46 -90 7 -63 0 -75 -117 -204
-47 -51 -136 -150 -199 -219 -63 -69 -146 -159 -184 -200 -39 -41 -93 -100
-121 -130 -255 -275 -322 -346 -331 -356 -5 -6 -104 -111 -220 -234 -115 -122
-212 -226 -213 -231 -2 -5 25 -44 60 -87 56 -67 160 -201 341 -442 82 -109 91
-120 111 -143 10 -12 35 -44 56 -72 87 -117 343 -464 377 -513 21 -29 43 -58
48 -65 6 -7 24 -33 41 -57 17 -25 78 -111 136 -192 58 -80 124 -172 145 -205
22 -32 67 -98 101 -147 73 -107 85 -152 53 -214 -29 -56 -65 -82 -115 -82 -23
0 -50 6 -59 13 -9 6 -51 62 -94 122 -125 175 -362 502 -420 580 -40 52 -177
236 -298 400 -82 110 -176 234 -209 276 -70 87 -81 101 -156 200 -65 86 -248
318 -293 373 l-32 38 -205 -213 c-293 -305 -407 -424 -574 -594 l-147 -150 5
-540 c6 -528 6 -541 -14 -573 -43 -70 -134 -93 -205 -51 -62 37 -54 -129 -75
1519 -6 426 -17 1173 -26 1658 -14 847 -14 885 3 914 38 65 133 85 198 42z
m-1651 -29 c62 -30 63 -37 53 -460 -4 -209 -6 -805 -3 -1325 5 -890 11 -1200
36 -1942 12 -331 12 -333 -39 -375 -40 -34 -129 -32 -170 3 -18 14 -36 35 -41
45 -6 10 -15 116 -21 236 -5 119 -12 220 -15 225 -3 5 -20 -11 -37 -34 -85
-118 -262 -266 -397 -333 -30 -15 -66 -33 -80 -40 -37 -19 -176 -61 -250 -75
-73 -15 -327 -15 -405 -1 -248 45 -484 172 -673 361 -213 213 -356 492 -413
810 -19 101 -21 140 -16 320 6 221 24 328 82 490 36 97 119 257 181 345 144
206 376 379 606 451 199 63 441 72 633 23 179 -45 273 -88 435 -203 80 -57
234 -203 267 -253 9 -13 19 -23 24 -23 5 0 9 132 9 298 0 544 21 1364 35 1392
36 70 127 99 199 65z"/>
<path d="M2420 5874 c-115 -20 -262 -89 -370 -172 -48 -37 -200 -191 -200
-202 0 -4 -14 -25 -31 -46 -59 -74 -151 -288 -175 -408 -45 -218 -28 -504 42
-696 127 -355 388 -616 719 -720 81 -25 287 -42 380 -30 214 27 438 153 586
331 145 172 216 326 259 564 19 101 21 140 16 248 -7 156 -41 329 -83 427 -32
74 -107 217 -139 265 -90 133 -259 282 -404 355 -183 92 -390 121 -600 84z"/>
</g>
</svg>
